<?xml version="1.0" encoding="utf-8"?>
<!-- Generator: Adobe Illustrator 21.0.0, SVG Export Plug-In . SVG Version: 6.00 Build 0)  -->
<svg version="1.1" id="Ebene_1" xmlns="http://www.w3.org/2000/svg" xmlns:xlink="http://www.w3.org/1999/xlink" x="0px" y="0px"
	 viewBox="0 0 168.5 231.3" style="enable-background:new 0 0 168.5 231.3;" xml:space="preserve">
<style type="text/css">
	.st0{fill:#FFFFFF;}
</style>
<title>InitailienJW_VAR02</title>
<path class="st0" d="M0.9,1L0.3,15.7l2,14.3L1.4,44.2l1,14.3l-1,14.3l1.1,14.3l-1.3,14.3L1,115.7L2,130l0.6,14.3l-0.4,14.3
	l-2.1,14.3l2.3,14.3L0,201.4l0.1,14.3l1.7,13.9l13.4-0.2l13.8,0.1l13.8-0.4l13.8,2l13.8-0.5l13.8-0.8l13.8,0.8l13.8-0.1l13.8,0.8
	l13.8-2.4l13.8,2.2l14.3-0.8l0.1-14.7l0.3-14.3l-1.2-14.3l-0.6-14.3l0.8-14.3l-1.1-14.3l2.3-14.3l-2.2-14.3l0.9-14.3l-0.2-14.3
	l0.8-14.3l-1.2-14.3l2.1-14.3l-1-14.3l-1-14.3L167,1.2l-13.8,0.1L139.4,2l-13.8-2.1L111.9,2L98.1,2.7L84.3,1.6L70.5,0.3L56.6,1.2
	L42.8,0.8L29,0L15.2,2.8L0.9,1z M158.3,171.3l0.4-13.7l-3-14l-0.1-14.2l-2-14.1V101l-2-14.1l0.3-14.3l-0.8-14.2l-2-14.1l-1.6-14.1
	l-0.1-13.5l-7.1,9.9L136,39.2l-8.6,10.6l1.1,14.4l2.9,13.9l1,14l1,14l1.5,14l-0.9,14.1l1.5,14l1.7,14.1l-10-10l-10.4-9.3l-9.8-10
	l-12-7.5l-9.8-11.3l-9.4,11.6l-9,10.8l-9.2,10.5l-8.1,11.6L40,170.2l-0.9-14.9L37,141.4l1.3-14.2l-3.2-13.9l-0.1-14l-1.3-14
	l-0.2-14.1l-2.1-13.8l-5.6-10.6l-8.1-9l-8.3-9.2l0.7-7.4l6.9,8.6l6.9,7.9l14.1,1L52.3,36l14.3-1.8H81l14.5,0.2l14.1-2.1l-7.2,11.4
	L95,55.1l-4.4,13.2l-8,11l-9.9-12.6l-9.7-13L52.6,40.5l-12.9,3l-13.4-0.3l9.9,12.7L47.1,67l8.1,13.3l10.8,11l9.8,11.9l9.5,11.6
	l7.2-12.9l9.1-12.3l6-14.1l9.1-12.2l5.7-14.3l7.6-13l8.2-12.8l7.2-13.9l12.1,1.7l0.2,13.8l0.8,14.7l0.8,14.7l-0.4,14.7l-1.1,14.7
	l0.7,14.7l0.7,14.7l-1.4,14.7l1.3,14.7l-1.6,14.7L158.3,171.3z M134.3,10.1L120.9,10l-13.7,3l-13.9,0.1l-13.8,2l-13.9,0.1l-13.8,2.1
	l-14-0.3l-13.9,0.9l-14.2,2L9.3,9.1l14.6,0.2l13.9,2.1L51.6,9l13.9,2.4l13.9-0.1l13.9-1.8h13.9l13.8,0L134.3,10.1z M10,46.9v14
	l3.1,14.4L13.4,90l2.1,14.5l0.2,14.7l2.2,14.5l-0.2,14.8l1,14.6l2.1,14.5l1.7,14.5l0.8,14.6l-0.7,13.8L9.3,222l2.1-15.3l-0.1-14.6
	l-1.8-14.6v-14.6l0.1-14.6l-0.4-14.6l2-14.6l-0.4-14.6L9.9,90l0.8-14.6l-0.1-14.6L10,46.9z M40.9,221.2l14.1,0.1l14.5-3l14.7-0.2
	l14.5-2.1l14.7-0.1l14.5-2.1l14.7,0.2l15-1.2l-11-9.2l-10.2-8.8l-14.6,0.8l-15.2-1L91.7,198l-15.2-1.3l-15,1.2l-14.8,2.9l-8.3,10.3
	l-8.6,10.5l-6.4-0.7l10.7-9.9l8.7-11.2l8.4-11.4l9.7-10.4l9-10.9l9.7-10.4l7.9-12.8L97,155l10.5,8.7l10.2,9.1l9.9,9.4l11,8.3
	l10.6,8.8l9.6,9.8l0.7,13l-15.5-2l-14.8,2.1l-14.8-0.9l-14.8,0.2l-14.8-0.8L70,221.9L55.1,220L40.9,221.2z"/>
</svg>
