<?xml version="1.0" encoding="utf-8"?>
<!-- Generator: Adobe Illustrator 21.0.0, SVG Export Plug-In . SVG Version: 6.00 Build 0)  -->
<svg version="1.1" id="Ebene_1" xmlns="http://www.w3.org/2000/svg" xmlns:xlink="http://www.w3.org/1999/xlink" x="0px" y="0px"
	 viewBox="0 0 48 48" style="enable-background:new 0 0 48 48;" xml:space="preserve">
<style type="text/css">
	.st0{fill:#666666;}
</style>
<title>InstagramIcon_VEKTOR</title>
<g id="Icons">
	<g id="Black">
		<path id="Instagram" class="st0" d="M24,0c-6.5,0-7.3,0-9.9,0.1c-2,0-4,0.4-5.8,1.1C6.7,1.9,5.2,2.8,4,4C2.8,5.2,1.9,6.7,1.3,8.3
			c-0.7,1.9-1.1,3.8-1.1,5.8C0,16.7,0,17.5,0,24s0,7.3,0.1,9.9c0,2,0.4,4,1.1,5.8C1.9,41.3,2.8,42.8,4,44c1.2,1.2,2.6,2.2,4.3,2.8
			c1.9,0.7,3.8,1.1,5.8,1.1C16.6,48,17.5,48,24,48s7.3,0,9.9-0.1c2,0,4-0.4,5.8-1.1c3.2-1.2,5.8-3.8,7-7c0.7-1.9,1.1-3.8,1.1-5.8
			C48,31.3,48,30.5,48,24s0-7.3-0.1-9.9c0-2-0.4-4-1.1-5.8C46.1,6.7,45.2,5.2,44,4c-1.2-1.2-2.6-2.2-4.3-2.8
			c-1.9-0.7-3.9-1.1-5.8-1.1C31.3,0,30.5,0,24,0z M24,4.3c6.4,0,7.2,0,9.7,0.1c1.5,0,3,0.3,4.5,0.8c1,0.4,2,1,2.8,1.8
			c0.8,0.8,1.4,1.7,1.8,2.8c0.5,1.4,0.8,2.9,0.8,4.5c0.1,2.5,0.1,3.3,0.1,9.7s0,7.2-0.1,9.7c0,1.5-0.3,3-0.8,4.5
			c-0.8,2.1-2.5,3.7-4.5,4.5c-1.4,0.5-2.9,0.8-4.5,0.8c-2.5,0.1-3.3,0.1-9.7,0.1s-7.2,0-9.7-0.1c-1.5,0-3-0.3-4.5-0.8
			c-1-0.4-2-1-2.8-1.8c-0.8-0.8-1.4-1.7-1.8-2.8c-0.5-1.4-0.8-2.9-0.8-4.5c-0.1-2.5-0.1-3.3-0.1-9.7s0-7.2,0.1-9.7
			c0-1.5,0.3-3,0.8-4.5c0.4-1,1-2,1.8-2.8c0.8-0.8,1.7-1.4,2.8-1.8c1.4-0.5,2.9-0.8,4.5-0.8C16.8,4.3,17.6,4.3,24,4.3z M24,11.7
			c-6.8,0-12.3,5.5-12.3,12.3S17.2,36.3,24,36.3c6.8,0,12.3-5.5,12.3-12.3C36.3,17.2,30.8,11.7,24,11.7L24,11.7z M24,32
			c-4.4,0-8-3.6-8-8s3.6-8,8-8s8,3.6,8,8S28.4,32,24,32z M39.7,11.2c0,1.6-1.3,2.9-2.9,2.9s-2.9-1.3-2.9-2.9s1.3-2.9,2.9-2.9
			S39.7,9.6,39.7,11.2L39.7,11.2z"/>
	</g>
</g>
</svg>
