<svg id="Ebene_1" data-name="Ebene 1" xmlns="http://www.w3.org/2000/svg" viewBox="0 0 168.5 231.3"><title>JWfavicon_VEKTOR</title><path d="M.9,1,.3,15.7,2.3,30,1.4,44.2l1,14.3-1,14.3L2.5,87.1,1.2,101.4,1,115.7,2,130l.6,14.3-.4,14.3L.1,172.9l2.3,14.3L0,201.4l.1,14.3,1.7,13.9,13.4-.2,13.8.1,13.8-.4,13.8,2,13.8-.5,13.8-.8,13.8.8,13.8-.1,13.8.8,13.8-2.4,13.8,2.2,14.3-.8.1-14.7.3-14.3L166.7,187l-.6-14.3.8-14.3-1.1-14.3,2.3-14.3-2.2-14.3.9-14.3-.2-14.3.8-14.3-1.2-14.3L168.3,44l-1-14.3-1-14.3L167,1.2l-13.8.1L139.4,2,125.6-.1,111.9,2l-13.8.7L84.3,1.6,70.5.3l-13.9.9L42.8.8,29,0,15.2,2.8ZM158.3,171.3l.4-13.7-3-14-.1-14.2-2-14.1V101l-2-14.1.3-14.3-.8-14.2-2-14.1-1.6-14.1-.1-13.5-7.1,9.9L136,39.2l-8.6,10.6,1.1,14.4,2.9,13.9,1,14,1,14,1.5,14-.9,14.1,1.5,14,1.7,14.1-10-10L116.8,143,107,133l-12-7.5-9.8-11.3-9.4,11.6-9,10.8-9.2,10.5-8.1,11.6L40,170.2l-.9-14.9L37,141.4l1.3-14.2-3.2-13.9-.1-14-1.3-14-.2-14.1L31.4,57.4,25.8,46.8l-8.1-9L9.4,28.6l.7-7.4L17,29.8l6.9,7.9,14.1,1L52.3,36l14.3-1.8H81l14.5.2,14.1-2.1-7.2,11.4L95,55.1,90.6,68.3l-8,11L72.7,66.7,63,53.7,52.6,40.5l-12.9,3-13.4-.3,9.9,12.7L47.1,67l8.1,13.3L66,91.3l9.8,11.9,9.5,11.6,7.2-12.9,9.1-12.3,6-14.1,9.1-12.2L122.4,49,130,36l8.2-12.8,7.2-13.9L157.5,11l.2,13.8.8,14.7.8,14.7-.4,14.7-1.1,14.7.7,14.7.7,14.7-1.4,14.7,1.3,14.7-1.6,14.7Zm-24-161.2L120.9,10l-13.7,3-13.9.1-13.8,2-13.9.1L51.8,17.3l-14-.3-13.9.9-14.2,2L9.3,9.1l14.6.2,13.9,2.1L51.6,9l13.9,2.4,13.9-.1L93.3,9.5H121ZM10,46.9v14l3.1,14.4L13.4,90l2.1,14.5.2,14.7,2.2,14.5-.2,14.8,1,14.6,2.1,14.5,1.7,14.5.8,14.6-.7,13.8L9.3,222l2.1-15.3-.1-14.6L9.5,177.5V162.9l.1-14.6-.4-14.6,2-14.6-.4-14.6L9.9,90l.8-14.6-.1-14.6ZM40.9,221.2l14.1.1,14.5-3,14.7-.2L98.7,216l14.7-.1,14.5-2.1,14.7.2,15-1.2-11-9.2-10.2-8.8-14.6.8-15.2-1L91.7,198l-15.2-1.3-15,1.2-14.8,2.9-8.3,10.3-8.6,10.5-6.4-.7L34.1,211l8.7-11.2,8.4-11.4L60.9,178l9-10.9,9.7-10.4,7.9-12.8L97,155l10.5,8.7,10.2,9.1,9.9,9.4,11,8.3,10.6,8.8,9.6,9.8.7,13-15.5-2-14.8,2.1-14.8-.9-14.8.2-14.8-.8L70,221.9,55.1,220Z"/></svg>