<svg id="Ebene_1" data-name="Ebene 1" xmlns="http://www.w3.org/2000/svg" viewBox="0 0 44 40"><defs><style>.cls-1{fill:#fff;}</style></defs><title>Zeichenfläche 1_VEKTOR</title><g id="Icons"><g id="Black"><path id="LinkedIn" class="cls-1" d="M44,40H34.28V25.94c0-3.68-1.52-6.19-4.87-6.19a4.91,4.91,0,0,0-4.64,3.33,6.19,6.19,0,0,0-.21,2.22V40H14.92s.12-24.91,0-27.17h9.63v4.26c.57-1.86,3.65-4.53,8.56-4.53,6.1,0,10.88,3.91,10.88,12.33V40ZM5.18,9.43H5.12C2,9.43,0,7.35,0,4.72S2.07,0,5.24,0s5.11,2,5.17,4.71-2,4.72-5.23,4.72Zm-4.07,3.4H9.69V40H1.11V12.83Z"/></g></g></svg>