<?xml version="1.0" encoding="utf-8"?>
<!-- Generator: Adobe Illustrator 21.0.0, SVG Export Plug-In . SVG Version: 6.00 Build 0)  -->
<svg version="1.1" id="Ebene_1" xmlns="http://www.w3.org/2000/svg" xmlns:xlink="http://www.w3.org/1999/xlink" x="0px" y="0px"
	 viewBox="0 0 44 40" style="enable-background:new 0 0 44 40;" xml:space="preserve">
<style type="text/css">
	.st0{fill:#666666;}
</style>
<title>Zeichenfläche 1_VEKTOR</title>
<g id="Icons">
	<g id="Black">
		<path id="LinkedIn" class="st0" d="M44,40h-9.7V25.9c0-3.7-1.5-6.2-4.9-6.2c-2.1,0-4,1.3-4.6,3.3c-0.2,0.7-0.3,1.5-0.2,2.2V40
			h-9.6c0,0,0.1-24.9,0-27.2h9.6v4.3c0.6-1.9,3.6-4.5,8.6-4.5c6.1,0,10.9,3.9,10.9,12.3L44,40L44,40z M5.2,9.4L5.2,9.4
			C2,9.4,0,7.3,0,4.7S2.1,0,5.2,0s5.1,2,5.2,4.7S8.4,9.4,5.2,9.4z M1.1,12.8h8.6V40H1.1C1.1,40,1.1,12.8,1.1,12.8z"/>
	</g>
</g>
</svg>
