<svg id="Ebene_1" data-name="Ebene 1" xmlns="http://www.w3.org/2000/svg" viewBox="0 0 48 41"><defs><style>.cls-1{fill:#fff;}</style></defs><title>vimeoIcon_VEKTOR</title><g id="Icons"><g id="Black"><path id="Vimeo" class="cls-1" d="M48,9.48q-.31,6.93-9.78,19Q28.41,41,21.62,41q-4.19,0-7.1-7.66-1.94-7-3.87-14.06Q8.49,11.61,6,11.61c-.36,0-1.61.75-3.76,2.24L0,11Q3.55,7.89,7,4.8q4.72-4,7.1-4.26Q19.68,0,21,8.1,22.37,16.83,22.91,19q1.62,7.24,3.55,7.24,1.5,0,4.52-4.68t3.23-7.14c.29-2.7-.79-4-3.23-4a9.25,9.25,0,0,0-3.55.74Q31-.31,41,0q7.41.21,7,9.47"/></g></g></svg>