<?xml version="1.0" encoding="utf-8"?>
<!-- Generator: Adobe Illustrator 21.0.0, SVG Export Plug-In . SVG Version: 6.00 Build 0)  -->
<svg version="1.1" id="Ebene_1" xmlns="http://www.w3.org/2000/svg" xmlns:xlink="http://www.w3.org/1999/xlink" x="0px" y="0px"
	 viewBox="0 0 48 41" style="enable-background:new 0 0 48 41;" xml:space="preserve">
<style type="text/css">
	.st0{fill:#666666;}
</style>
<title>vimeoIcon_VEKTOR</title>
<g id="Icons">
	<g id="Black">
		<path id="Vimeo" class="st0" d="M48,9.5c-0.2,4.6-3.5,11-9.8,19C31.7,36.8,26.1,41,21.6,41c-2.8,0-5.2-2.6-7.1-7.7
			c-1.3-4.7-2.6-9.4-3.9-14.1c-1.4-5.1-3-7.7-4.7-7.7c-0.4,0-1.6,0.8-3.8,2.2L0,11c2.4-2.1,4.7-4.1,7-6.2c3.1-2.7,5.5-4.1,7.1-4.3
			c3.7-0.4,6,2.2,6.9,7.6c0.9,5.8,1.6,9.5,1.9,10.9c1.1,4.8,2.3,7.2,3.5,7.2c1,0,2.5-1.6,4.5-4.7s3.1-5.5,3.2-7.1
			c0.3-2.7-0.8-4-3.2-4c-1.2,0-2.4,0.3-3.5,0.7C29.8,3.5,34.3-0.2,41,0C45.9,0.1,48.3,3.3,48,9.5"/>
	</g>
</g>
</svg>
